<mxfile host="Electron" modified="2023-11-30T22:36:15.230Z" agent="Mozilla/5.0 (X11; Linux x86_64) AppleWebKit/537.36 (KHTML, like Gecko) draw.io/22.1.2 Chrome/114.0.5735.289 Electron/25.9.4 Safari/537.36" etag="04G-0hlXOIwoNIG291tV" version="22.1.2" type="device">
  <diagram id="C5RBs43oDa-KdzZeNtuy" name="Page-1">
    <mxGraphModel dx="1050" dy="723" grid="1" gridSize="10" guides="1" tooltips="1" connect="1" arrows="1" fold="1" page="1" pageScale="1" pageWidth="827" pageHeight="1169" math="0" shadow="0">
      <root>
        <mxCell id="WIyWlLk6GJQsqaUBKTNV-0" />
        <mxCell id="WIyWlLk6GJQsqaUBKTNV-1" parent="WIyWlLk6GJQsqaUBKTNV-0" />
        <mxCell id="tRp6WuskY4ysIOSj12gz-29" value="" style="edgeStyle=orthogonalEdgeStyle;rounded=0;orthogonalLoop=1;jettySize=auto;html=1;" edge="1" parent="WIyWlLk6GJQsqaUBKTNV-1" source="tRp6WuskY4ysIOSj12gz-30" target="tRp6WuskY4ysIOSj12gz-32">
          <mxGeometry relative="1" as="geometry" />
        </mxCell>
        <mxCell id="tRp6WuskY4ysIOSj12gz-30" value="Начало" style="rounded=1;whiteSpace=wrap;html=1;" vertex="1" parent="WIyWlLk6GJQsqaUBKTNV-1">
          <mxGeometry x="140" y="30" width="120" height="60" as="geometry" />
        </mxCell>
        <mxCell id="tRp6WuskY4ysIOSj12gz-31" value="" style="edgeStyle=orthogonalEdgeStyle;rounded=0;orthogonalLoop=1;jettySize=auto;html=1;" edge="1" parent="WIyWlLk6GJQsqaUBKTNV-1" source="tRp6WuskY4ysIOSj12gz-32" target="tRp6WuskY4ysIOSj12gz-34">
          <mxGeometry relative="1" as="geometry" />
        </mxCell>
        <mxCell id="tRp6WuskY4ysIOSj12gz-32" value="a # array" style="shape=parallelogram;perimeter=parallelogramPerimeter;whiteSpace=wrap;html=1;fixedSize=1;" vertex="1" parent="WIyWlLk6GJQsqaUBKTNV-1">
          <mxGeometry x="140" y="120" width="120" height="60" as="geometry" />
        </mxCell>
        <mxCell id="tRp6WuskY4ysIOSj12gz-33" value="" style="edgeStyle=orthogonalEdgeStyle;rounded=0;orthogonalLoop=1;jettySize=auto;html=1;" edge="1" parent="WIyWlLk6GJQsqaUBKTNV-1" source="tRp6WuskY4ysIOSj12gz-34" target="tRp6WuskY4ysIOSj12gz-37">
          <mxGeometry relative="1" as="geometry" />
        </mxCell>
        <mxCell id="tRp6WuskY4ysIOSj12gz-34" value="max =&amp;nbsp; a[0]&lt;br&gt;min = a[0]&lt;br&gt;i_max = 0&lt;br&gt;I_min = 0&lt;br&gt;i = 0&lt;br&gt;sum = 0" style="rounded=0;whiteSpace=wrap;html=1;" vertex="1" parent="WIyWlLk6GJQsqaUBKTNV-1">
          <mxGeometry x="140" y="210" width="120" height="90" as="geometry" />
        </mxCell>
        <mxCell id="tRp6WuskY4ysIOSj12gz-35" value="yes" style="edgeStyle=orthogonalEdgeStyle;rounded=0;orthogonalLoop=1;jettySize=auto;html=1;" edge="1" parent="WIyWlLk6GJQsqaUBKTNV-1" source="tRp6WuskY4ysIOSj12gz-37" target="tRp6WuskY4ysIOSj12gz-40">
          <mxGeometry relative="1" as="geometry">
            <Array as="points">
              <mxPoint x="200" y="455" />
              <mxPoint x="200" y="455" />
            </Array>
          </mxGeometry>
        </mxCell>
        <mxCell id="tRp6WuskY4ysIOSj12gz-36" value="no" style="edgeStyle=orthogonalEdgeStyle;rounded=0;orthogonalLoop=1;jettySize=auto;html=1;" edge="1" parent="WIyWlLk6GJQsqaUBKTNV-1" source="tRp6WuskY4ysIOSj12gz-37">
          <mxGeometry relative="1" as="geometry">
            <mxPoint x="470" y="385" as="targetPoint" />
          </mxGeometry>
        </mxCell>
        <mxCell id="tRp6WuskY4ysIOSj12gz-37" value="i &amp;lt; len(a) - 1" style="rhombus;whiteSpace=wrap;html=1;" vertex="1" parent="WIyWlLk6GJQsqaUBKTNV-1">
          <mxGeometry x="145" y="330" width="110" height="110" as="geometry" />
        </mxCell>
        <mxCell id="tRp6WuskY4ysIOSj12gz-38" value="yes" style="edgeStyle=orthogonalEdgeStyle;rounded=0;orthogonalLoop=1;jettySize=auto;html=1;" edge="1" parent="WIyWlLk6GJQsqaUBKTNV-1" source="tRp6WuskY4ysIOSj12gz-40" target="tRp6WuskY4ysIOSj12gz-44">
          <mxGeometry relative="1" as="geometry" />
        </mxCell>
        <mxCell id="tRp6WuskY4ysIOSj12gz-39" value="no" style="edgeStyle=orthogonalEdgeStyle;rounded=0;orthogonalLoop=1;jettySize=auto;html=1;" edge="1" parent="WIyWlLk6GJQsqaUBKTNV-1" source="tRp6WuskY4ysIOSj12gz-40" target="tRp6WuskY4ysIOSj12gz-43">
          <mxGeometry relative="1" as="geometry">
            <Array as="points">
              <mxPoint x="200" y="600" />
              <mxPoint x="200" y="600" />
            </Array>
          </mxGeometry>
        </mxCell>
        <mxCell id="tRp6WuskY4ysIOSj12gz-40" value="max &amp;lt; a[i+1]" style="rhombus;whiteSpace=wrap;html=1;" vertex="1" parent="WIyWlLk6GJQsqaUBKTNV-1">
          <mxGeometry x="145" y="475" width="110" height="110" as="geometry" />
        </mxCell>
        <mxCell id="tRp6WuskY4ysIOSj12gz-41" value="" style="edgeStyle=orthogonalEdgeStyle;rounded=0;orthogonalLoop=1;jettySize=auto;html=1;" edge="1" parent="WIyWlLk6GJQsqaUBKTNV-1" source="tRp6WuskY4ysIOSj12gz-43" target="tRp6WuskY4ysIOSj12gz-45">
          <mxGeometry relative="1" as="geometry" />
        </mxCell>
        <mxCell id="tRp6WuskY4ysIOSj12gz-42" value="no" style="edgeStyle=orthogonalEdgeStyle;rounded=0;orthogonalLoop=1;jettySize=auto;html=1;" edge="1" parent="WIyWlLk6GJQsqaUBKTNV-1" source="tRp6WuskY4ysIOSj12gz-43" target="tRp6WuskY4ysIOSj12gz-46">
          <mxGeometry relative="1" as="geometry">
            <Array as="points">
              <mxPoint x="200" y="780" />
              <mxPoint x="200" y="780" />
            </Array>
          </mxGeometry>
        </mxCell>
        <mxCell id="tRp6WuskY4ysIOSj12gz-43" value="min &amp;gt; a[i + 1]" style="rhombus;whiteSpace=wrap;html=1;" vertex="1" parent="WIyWlLk6GJQsqaUBKTNV-1">
          <mxGeometry x="140" y="640" width="120" height="120" as="geometry" />
        </mxCell>
        <mxCell id="tRp6WuskY4ysIOSj12gz-44" value="max = a[i+1]&lt;br&gt;i_max = i + 1" style="rounded=0;whiteSpace=wrap;html=1;" vertex="1" parent="WIyWlLk6GJQsqaUBKTNV-1">
          <mxGeometry x="300" y="500" width="120" height="60" as="geometry" />
        </mxCell>
        <mxCell id="tRp6WuskY4ysIOSj12gz-45" value="min = a[i+1]&lt;br&gt;i_min = i + 1" style="rounded=0;whiteSpace=wrap;html=1;" vertex="1" parent="WIyWlLk6GJQsqaUBKTNV-1">
          <mxGeometry x="300" y="670" width="120" height="60" as="geometry" />
        </mxCell>
        <mxCell id="tRp6WuskY4ysIOSj12gz-46" value="i += 1" style="rounded=0;whiteSpace=wrap;html=1;" vertex="1" parent="WIyWlLk6GJQsqaUBKTNV-1">
          <mxGeometry x="140" y="800" width="120" height="60" as="geometry" />
        </mxCell>
        <mxCell id="tRp6WuskY4ysIOSj12gz-47" value="" style="endArrow=none;html=1;rounded=0;entryX=0.5;entryY=1;entryDx=0;entryDy=0;" edge="1" parent="WIyWlLk6GJQsqaUBKTNV-1" target="tRp6WuskY4ysIOSj12gz-44">
          <mxGeometry width="50" height="50" relative="1" as="geometry">
            <mxPoint x="200" y="640" as="sourcePoint" />
            <mxPoint x="250" y="640" as="targetPoint" />
            <Array as="points">
              <mxPoint x="360" y="640" />
            </Array>
          </mxGeometry>
        </mxCell>
        <mxCell id="tRp6WuskY4ysIOSj12gz-48" value="" style="endArrow=none;html=1;rounded=0;entryX=0.5;entryY=1;entryDx=0;entryDy=0;" edge="1" parent="WIyWlLk6GJQsqaUBKTNV-1" target="tRp6WuskY4ysIOSj12gz-45">
          <mxGeometry width="50" height="50" relative="1" as="geometry">
            <mxPoint x="200" y="790" as="sourcePoint" />
            <mxPoint x="360" y="770" as="targetPoint" />
            <Array as="points">
              <mxPoint x="360" y="790" />
            </Array>
          </mxGeometry>
        </mxCell>
        <mxCell id="tRp6WuskY4ysIOSj12gz-49" value="" style="endArrow=none;html=1;rounded=0;entryX=0;entryY=0.5;entryDx=0;entryDy=0;" edge="1" parent="WIyWlLk6GJQsqaUBKTNV-1" target="tRp6WuskY4ysIOSj12gz-46">
          <mxGeometry width="50" height="50" relative="1" as="geometry">
            <mxPoint x="200" y="310" as="sourcePoint" />
            <mxPoint x="250" y="560" as="targetPoint" />
            <Array as="points">
              <mxPoint x="50" y="310" />
              <mxPoint x="50" y="830" />
            </Array>
          </mxGeometry>
        </mxCell>
        <mxCell id="tRp6WuskY4ysIOSj12gz-57" value="yes" style="edgeStyle=orthogonalEdgeStyle;rounded=0;orthogonalLoop=1;jettySize=auto;html=1;" edge="1" parent="WIyWlLk6GJQsqaUBKTNV-1" source="tRp6WuskY4ysIOSj12gz-54" target="tRp6WuskY4ysIOSj12gz-55">
          <mxGeometry relative="1" as="geometry">
            <Array as="points">
              <mxPoint x="520" y="460" />
              <mxPoint x="520" y="460" />
            </Array>
          </mxGeometry>
        </mxCell>
        <mxCell id="tRp6WuskY4ysIOSj12gz-58" value="no" style="edgeStyle=orthogonalEdgeStyle;rounded=0;orthogonalLoop=1;jettySize=auto;html=1;" edge="1" parent="WIyWlLk6GJQsqaUBKTNV-1" source="tRp6WuskY4ysIOSj12gz-54" target="tRp6WuskY4ysIOSj12gz-56">
          <mxGeometry relative="1" as="geometry">
            <Array as="points">
              <mxPoint x="600" y="385" />
              <mxPoint x="600" y="385" />
            </Array>
          </mxGeometry>
        </mxCell>
        <mxCell id="tRp6WuskY4ysIOSj12gz-54" value="i_min &amp;lt; i_max" style="rhombus;whiteSpace=wrap;html=1;" vertex="1" parent="WIyWlLk6GJQsqaUBKTNV-1">
          <mxGeometry x="470" y="335" width="100" height="100" as="geometry" />
        </mxCell>
        <mxCell id="tRp6WuskY4ysIOSj12gz-55" value="step = 1&lt;br&gt;i = i_min" style="rounded=0;whiteSpace=wrap;html=1;" vertex="1" parent="WIyWlLk6GJQsqaUBKTNV-1">
          <mxGeometry x="460" y="500" width="120" height="60" as="geometry" />
        </mxCell>
        <mxCell id="tRp6WuskY4ysIOSj12gz-56" value="step = -1&lt;br&gt;i = i_min" style="rounded=0;whiteSpace=wrap;html=1;" vertex="1" parent="WIyWlLk6GJQsqaUBKTNV-1">
          <mxGeometry x="630" y="355" width="120" height="60" as="geometry" />
        </mxCell>
        <mxCell id="tRp6WuskY4ysIOSj12gz-66" value="no" style="edgeStyle=orthogonalEdgeStyle;rounded=0;orthogonalLoop=1;jettySize=auto;html=1;" edge="1" parent="WIyWlLk6GJQsqaUBKTNV-1" source="tRp6WuskY4ysIOSj12gz-59" target="tRp6WuskY4ysIOSj12gz-60">
          <mxGeometry x="0.2727" relative="1" as="geometry">
            <Array as="points">
              <mxPoint x="620" y="700" />
              <mxPoint x="620" y="700" />
            </Array>
            <mxPoint as="offset" />
          </mxGeometry>
        </mxCell>
        <mxCell id="tRp6WuskY4ysIOSj12gz-69" value="yes" style="edgeStyle=orthogonalEdgeStyle;rounded=0;orthogonalLoop=1;jettySize=auto;html=1;" edge="1" parent="WIyWlLk6GJQsqaUBKTNV-1" source="tRp6WuskY4ysIOSj12gz-59" target="tRp6WuskY4ysIOSj12gz-68">
          <mxGeometry relative="1" as="geometry">
            <Array as="points">
              <mxPoint x="690" y="770" />
              <mxPoint x="690" y="770" />
            </Array>
          </mxGeometry>
        </mxCell>
        <mxCell id="tRp6WuskY4ysIOSj12gz-59" value="i == i max" style="rhombus;whiteSpace=wrap;html=1;" vertex="1" parent="WIyWlLk6GJQsqaUBKTNV-1">
          <mxGeometry x="635" y="645" width="110" height="110" as="geometry" />
        </mxCell>
        <mxCell id="tRp6WuskY4ysIOSj12gz-60" value="sum += a[i]&lt;br&gt;i += 1" style="rounded=0;whiteSpace=wrap;html=1;" vertex="1" parent="WIyWlLk6GJQsqaUBKTNV-1">
          <mxGeometry x="460" y="670" width="120" height="60" as="geometry" />
        </mxCell>
        <mxCell id="tRp6WuskY4ysIOSj12gz-64" value="" style="endArrow=classic;html=1;rounded=0;entryX=0.5;entryY=0;entryDx=0;entryDy=0;exitX=0.5;exitY=1;exitDx=0;exitDy=0;" edge="1" parent="WIyWlLk6GJQsqaUBKTNV-1" source="tRp6WuskY4ysIOSj12gz-56" target="tRp6WuskY4ysIOSj12gz-59">
          <mxGeometry width="50" height="50" relative="1" as="geometry">
            <mxPoint x="330" y="560" as="sourcePoint" />
            <mxPoint x="380" y="510" as="targetPoint" />
          </mxGeometry>
        </mxCell>
        <mxCell id="tRp6WuskY4ysIOSj12gz-65" value="" style="endArrow=none;html=1;rounded=0;entryX=1;entryY=0.5;entryDx=0;entryDy=0;" edge="1" parent="WIyWlLk6GJQsqaUBKTNV-1" target="tRp6WuskY4ysIOSj12gz-55">
          <mxGeometry width="50" height="50" relative="1" as="geometry">
            <mxPoint x="690" y="530" as="sourcePoint" />
            <mxPoint x="380" y="510" as="targetPoint" />
          </mxGeometry>
        </mxCell>
        <mxCell id="tRp6WuskY4ysIOSj12gz-67" value="" style="endArrow=none;html=1;rounded=0;entryX=0.5;entryY=0;entryDx=0;entryDy=0;" edge="1" parent="WIyWlLk6GJQsqaUBKTNV-1" target="tRp6WuskY4ysIOSj12gz-60">
          <mxGeometry width="50" height="50" relative="1" as="geometry">
            <mxPoint x="690" y="600" as="sourcePoint" />
            <mxPoint x="380" y="770" as="targetPoint" />
            <Array as="points">
              <mxPoint x="520" y="600" />
            </Array>
          </mxGeometry>
        </mxCell>
        <mxCell id="tRp6WuskY4ysIOSj12gz-71" value="" style="edgeStyle=orthogonalEdgeStyle;rounded=0;orthogonalLoop=1;jettySize=auto;html=1;" edge="1" parent="WIyWlLk6GJQsqaUBKTNV-1" source="tRp6WuskY4ysIOSj12gz-68" target="tRp6WuskY4ysIOSj12gz-70">
          <mxGeometry relative="1" as="geometry" />
        </mxCell>
        <mxCell id="tRp6WuskY4ysIOSj12gz-68" value="sum" style="shape=document;whiteSpace=wrap;html=1;boundedLbl=1;" vertex="1" parent="WIyWlLk6GJQsqaUBKTNV-1">
          <mxGeometry x="630" y="800" width="120" height="80" as="geometry" />
        </mxCell>
        <mxCell id="tRp6WuskY4ysIOSj12gz-70" value="Конец" style="rounded=1;whiteSpace=wrap;html=1;" vertex="1" parent="WIyWlLk6GJQsqaUBKTNV-1">
          <mxGeometry x="630" y="920" width="120" height="60" as="geometry" />
        </mxCell>
        <mxCell id="tRp6WuskY4ysIOSj12gz-72" value="Найти сумму элементов массива, лежащих между максимальным и минимальным по значению элементами" style="text;html=1;strokeColor=none;fillColor=none;align=center;verticalAlign=middle;whiteSpace=wrap;rounded=0;" vertex="1" parent="WIyWlLk6GJQsqaUBKTNV-1">
          <mxGeometry x="360" y="35" width="320" height="50" as="geometry" />
        </mxCell>
      </root>
    </mxGraphModel>
  </diagram>
</mxfile>
